<?xml version="1.0" encoding="UTF-8" standalone="no"?>
<svg
   xmlns:dc="http://purl.org/dc/elements/1.1/"
   xmlns:cc="http://creativecommons.org/ns#"
   xmlns:rdf="http://www.w3.org/1999/02/22-rdf-syntax-ns#"
   xmlns:svg="http://www.w3.org/2000/svg"
   xmlns="http://www.w3.org/2000/svg"
   xmlns:sodipodi="http://sodipodi.sourceforge.net/DTD/sodipodi-0.dtd"
   xmlns:inkscape="http://www.inkscape.org/namespaces/inkscape"
   width="64"
   height="64"
   viewBox="0 0 64 64"
   version="1.1"
   id="svg8"
   sodipodi:docname="abcd.svg"
   inkscape:version="1.0 (4035a4fb49, 2020-05-01)">
  <sodipodi:namedview
     pagecolor="#ffffff"
     inkscape:document-rotation="0"
     bordercolor="#666666"
     borderopacity="1"
     objecttolerance="10"
     gridtolerance="10"
     guidetolerance="10"
     inkscape:pageopacity="1"
     inkscape:pageshadow="2"
     inkscape:window-width="1407"
     inkscape:window-height="1208"
     id="namedview9"
     showgrid="false"
     inkscape:zoom="15.75"
     inkscape:cx="32"
     inkscape:cy="32"
     inkscape:window-x="2656"
     inkscape:window-y="135"
     inkscape:window-maximized="0"
     inkscape:current-layer="svg8" />
  <defs
     id="defs2" />
  <metadata
     id="metadata5">
    <rdf:RDF>
      <cc:Work
         rdf:about="">
        <dc:format>image/svg+xml</dc:format>
        <dc:type
           rdf:resource="http://purl.org/dc/dcmitype/StillImage" />
        <dc:title></dc:title>
      </cc:Work>
    </rdf:RDF>
  </metadata>
  <path
     d="M 55.077472,46.489056 H 49.818163 V 43.215974 Q 47.552182,45.174229 45.090376,46.265257 42.628569,47.356282 39.747138,47.356282 34.152125,47.356282 30.851068,43.048122 27.577985,38.739963 27.577985,31.102771 27.577985,27.130311 28.696987,24.025079 29.843965,20.919847 31.774245,18.737792 33.676549,16.611687 36.194305,15.492684 38.740034,14.373682 41.453617,14.373682 43.915423,14.373682 45.817727,14.905208 47.72003,15.408759 49.818163,16.499787 V 2.9598557 H 55.077472 Z M 49.818163,38.795914 V 20.863897 Q 47.692057,19.912745 46.013552,19.549069 44.335047,19.185393 42.34882,19.185393 37.928759,19.185393 35.466953,22.26265 33.005148,25.339907 33.005148,30.99087 33.005148,36.557908 34.907452,39.467314 36.809756,42.348745 41.006015,42.348745 43.244023,42.348745 45.537977,41.369617 47.831932,40.362517 49.818163,38.795914 Z"
     style="font-style:normal;font-weight:normal;font-size:14.2652px;line-height:1.25;font-family:sans-serif;fill:#44dc6c;fill-opacity:1;stroke:none;stroke-width:1.43233"
     id="3" />
  <path
     d="M 46.700913,49.646264 Q 44.071258,50.90514 41.693376,51.604518 39.343471,52.303892 36.68584,52.303892 33.300857,52.303892 30.475376,51.324765 27.649894,50.317664 25.63569,48.303459 23.59351,46.289254 22.474507,43.211998 21.355504,40.134738 21.355504,36.022405 21.355504,28.357238 25.551764,23.993128 29.775999,19.629018 36.68584,19.629018 39.371444,19.629018 41.945152,20.384344 44.546833,21.139671 46.700913,22.230699 V 28.077487 H 46.421164 Q 44.015308,26.203158 41.4416,25.196056 38.895869,24.188953 36.462039,24.188953 31.986029,24.188953 29.384348,27.21026 26.810642,30.203592 26.810642,36.022405 26.810642,41.673368 29.328398,44.722651 31.874129,47.743956 36.462039,47.743956 38.056618,47.743956 39.707148,47.324332 41.357676,46.904704 42.672503,46.233304 43.819482,45.645827 44.826583,45.0024 45.833687,44.331 46.421164,43.855425 H 46.700913 Z"
     style="font-style:normal;font-weight:normal;font-size:14.2652px;line-height:1.25;font-family:sans-serif;fill:#fbdc05;fill-opacity:1;stroke:none;stroke-width:1.43233"
     id="2" />
  <path
     d="M 43.419799,40.986007 Q 43.419799,44.902516 42.300797,48.035722 41.209769,51.168929 39.335438,53.295036 37.349211,55.505066 34.97133,56.624068 32.59345,57.715096 29.739993,57.715096 27.082362,57.715096 25.096133,57.071669 23.109903,56.456216 21.179623,55.393165 L 20.843923,56.847867 H 15.920311 V 13.318668 H 21.179623 V 28.872803 Q 23.389654,27.054424 25.879434,25.907447 28.369215,24.732494 31.474447,24.732494 37.01351,24.732494 40.202668,28.984704 43.419799,33.236913 43.419799,40.986007 Z M 37.992637,41.125882 Q 37.992637,35.530869 36.146283,32.649437 34.299929,29.74003 30.187594,29.74003 27.893639,29.74003 25.543733,30.747133 23.193828,31.72626 21.179623,33.292864 V 51.196907 Q 23.417629,52.204007 25.012207,52.595658 26.634761,52.987309 28.676941,52.987309 33.041051,52.987309 35.502856,50.133851 37.992637,47.252421 37.992637,41.125882 Z"
     style="font-style:normal;font-weight:normal;font-size:14.2652px;line-height:1.25;font-family:sans-serif;fill:#ea4335;fill-opacity:1;stroke:none;stroke-width:1.43233"
     id="1" />
  <path
     d="M 35.470864,60.172919 H 30.239527 V 56.843882 Q 29.54015,57.319461 28.337222,58.186687 27.16227,59.025939 26.043267,59.529492 24.728439,60.172919 23.02196,60.592543 21.315481,61.040144 19.021526,61.040144 14.797291,61.040144 11.85991,58.242638 8.9225278,55.445131 8.9225278,51.108994 8.9225278,47.556163 10.433181,45.374106 11.97181,43.164076 14.797291,41.905199 17.650748,40.646323 21.651182,40.198721 25.651616,39.75112 30.239527,39.527321 V 38.716042 Q 30.239527,36.925638 29.5961,35.750686 28.980649,34.575733 27.805696,33.904331 26.686694,33.260905 25.12009,33.037104 23.553486,32.813304 21.847007,32.813304 19.776853,32.813304 17.231122,33.372805 14.685391,33.904331 11.97181,34.939409 H 11.692059 V 29.596171 Q 13.230688,29.176545 16.140094,28.672994 19.049501,28.169443 21.874982,28.169443 25.17604,28.169443 27.609871,28.728944 30.071676,29.26047 31.862081,30.575299 33.624509,31.862152 34.547687,33.904331 35.470864,35.946511 35.470864,38.967818 Z M 30.239527,52.479772 V 43.77953 Q 27.833671,43.919404 24.560589,44.199154 21.315481,44.478907 19.413177,45.010433 17.147196,45.65386 15.748444,47.024638 14.34969,48.367438 14.34969,50.745321 14.34969,53.430926 15.972244,54.801704 17.594798,56.144509 20.92383,56.144509 23.693361,56.144509 25.987317,55.081454 28.281272,53.990429 30.239527,52.479772 Z"
     style="font-style:normal;font-weight:normal;font-size:14.2652px;line-height:1.25;font-family:sans-serif;fill:#4285f4;fill-opacity:1;stroke:none;stroke-width:1.43233"
     id="0" />
</svg>
