<?xml version="1.0" encoding="UTF-8" standalone="no"?>
<svg
   xmlns:dc="http://purl.org/dc/elements/1.1/"
   xmlns:cc="http://creativecommons.org/ns#"
   xmlns:rdf="http://www.w3.org/1999/02/22-rdf-syntax-ns#"
   xmlns:svg="http://www.w3.org/2000/svg"
   xmlns="http://www.w3.org/2000/svg"
   xmlns:sodipodi="http://sodipodi.sourceforge.net/DTD/sodipodi-0.dtd"
   xmlns:inkscape="http://www.inkscape.org/namespaces/inkscape"
   id="Layer_1"
   data-name="Layer 1"
   viewBox="0 0 64 64"
   version="1.1"
   sodipodi:docname="pikuma.svg"
   inkscape:version="1.0 (4035a4fb49, 2020-05-01)"
   width="64"
   height="64">
  <metadata
     id="metadata31">
    <rdf:RDF>
      <cc:Work
         rdf:about="">
        <dc:format>image/svg+xml</dc:format>
        <dc:type
           rdf:resource="http://purl.org/dc/dcmitype/StillImage" />
        <dc:title />
      </cc:Work>
    </rdf:RDF>
  </metadata>
  <sodipodi:namedview
     inkscape:document-rotation="0"
     pagecolor="#ffffff"
     bordercolor="#666666"
     borderopacity="1"
     objecttolerance="10"
     gridtolerance="10"
     guidetolerance="10"
     inkscape:pageopacity="1"
     inkscape:pageshadow="2"
     inkscape:window-width="2560"
     inkscape:window-height="1361"
     id="namedview29"
     showgrid="false"
     inkscape:zoom="32"
     inkscape:cx="53.211323"
     inkscape:cy="25.962659"
     inkscape:window-x="2391"
     inkscape:window-y="-9"
     inkscape:window-maximized="1"
     inkscape:current-layer="layer1" />
  <defs
     id="defs4">
    <style
       id="style2">.cls-1{fill:#fee35e;}.cls-2{fill:#f79246;}.cls-3{fill:#dd884e;}.cls-4{fill:#231f1d;}.cls-5{fill:#fff;}.cls-6{fill:#e8d04f;}</style>
  </defs>
  <g
     inkscape:groupmode="layer"
     id="layer1"
     inkscape:label="Layer 1"
     style="display:inline">
    <path
       id="3"
       style="fill:#fee35e;fill-opacity:1;stroke:none;stroke-width:0.938242"
       d="M 41.485814,2.277403 C 33.827498,2.3135679 26.896028,6.819454 23.754498,13.803857 11.881896,15.300356 1.7864329,20.194819 1.7864329,32.018954 1.7864329,46.824418 19.180244,60.774976 34.501742,60.774976 49.82324,60.774976 60.68863,54.90371 60.68863,40.107628 60.68863,36.821577 60.074939,33.67275 58.955081,30.760023 60.377936,27.995115 61.120505,24.930603 61.1211,21.821065 61.121141,11.027382 52.371121,2.2773625 41.577439,2.277403 41.546897,2.2773314 41.516355,2.2773314 41.485814,2.277403 Z M 59.052203,22.656687 C 59.517155,22.839764 59.432173,23.373575 59.471847,23.708545 59.389882,24.156304 58.9191,24.711659 58.72052,24.676107 58.521235,24.640851 58.250072,23.937878 58.332029,23.488645 58.405908,23.084123 58.86433,22.68106 59.052203,22.656687 Z M 45.788535,26.809142 C 46.350788,26.824901 47.006756,27.68849 47.151918,27.976448 47.151797,28.370091 46.099715,29.363534 45.706072,29.363655 45.312429,29.363534 44.436267,28.355432 44.436146,27.961788 44.436107,27.575882 45.402786,26.82017 45.788535,26.809142 Z"
       sodipodi:nodetypes="ccssscccccccccccccc" />
    <path
       id="1"
       d="M 59.169483,29.354492 55.777517,30.749027 C 55.188084,30.927965 54.687245,31.178093 54.196066,31.399567 51.441674,33.649052 48.636288,35.890882 45.856337,38.128524 44.908712,39.001089 45.817342,39.140432 45.995608,39.281169 51.366547,41.294101 58.721668,42.814287 61.487601,39.000795 61.487601,39.000795 64.18908,35.565656 59.169483,29.354492 Z"
       style="fill:#f79246;fill-opacity:1;stroke-width:0.938242"
       sodipodi:nodetypes="ccccccc" />
    <path
       class="cls-6"
       d="M 22.033703,30.443439"
       id="path24"
       style="stroke-width:0.938242" />
    <path
       sodipodi:nodetypes="ccccccccccccccccccccc"
       id="0"
       style="fill:#231f1d;stroke-width:0.938242"
       d="M 58.826805,21.559017 C 58.282788,21.603621 57.72755,22.794103 57.555047,24.285783 57.373561,25.855594 57.681209,27.180532 58.242236,27.245279 58.803338,27.310612 59.405585,26.090529 59.587295,24.520344 59.768781,22.950532 59.461133,21.625595 58.900105,21.560849 58.875931,21.557818 58.851482,21.557207 58.826805,21.559017 Z M 59.062708,22.818487 C 59.282642,22.823883 59.377883,23.217163 59.295926,23.666398 59.213961,24.114157 58.986902,24.447778 58.788322,24.412227 58.589036,24.37697 58.493795,23.98369 58.575752,23.534456 58.649313,23.131363 58.842773,22.813091 59.062708,22.818487 Z M 45.537481,26.202584 C 44.039491,26.20226 42.82505,27.416701 42.825374,28.914691 42.826063,30.411964 44.040208,31.625288 45.537481,31.624964 47.034039,31.624276 48.247067,30.411249 48.247755,28.914691 48.248079,27.417417 47.034755,26.203272 45.537481,26.202584 Z M 45.80256,27.239857 C 46.202335,27.234404 46.521415,27.553484 46.521537,27.947127 46.521417,28.340771 46.202336,28.659852 45.808692,28.659973 45.415048,28.659852 45.095967,28.340771 45.095847,27.947127 45.095809,27.56122 45.402786,27.24531 45.80256,27.239857 Z" />
    <path
       id="2"
       style="fill:#e8d04f;fill-opacity:1;stroke:none;stroke-width:0.938;stroke-miterlimit:4;stroke-dasharray:none"
       d="M 28.667969 37.443359 C 33.116663 44.214652 41.609375 44.578125 47.53125 42.078125 C 36.828125 44.0625 30.027344 38.333984 28.667969 37.443359 z M 3.6894531 40.369141 C 11.242304 63.037077 34.408202 61.714461 35.890625 61.705078 C 36.754118 61.734483 37.619096 61.715684 38.480469 61.648438 C 56.935697 61.047963 59.414063 47.958984 59.414062 47.958984 C 45.565604 68.834876 20.673828 53.992187 20.673828 53.992188 C 24.670741 49.329124 22.550781 45.941406 22.550781 45.941406 C 22.766576 48.099364 19.585274 50.427142 14.5 49.695312 C 9.4147265 48.963484 3.6894531 40.369141 3.6894531 40.369141 z " />
  </g>
</svg>
