<?xml version="1.0" encoding="UTF-8" standalone="no"?>
<svg
   xmlns:dc="http://purl.org/dc/elements/1.1/"
   xmlns:cc="http://creativecommons.org/ns#"
   xmlns:rdf="http://www.w3.org/1999/02/22-rdf-syntax-ns#"
   xmlns:svg="http://www.w3.org/2000/svg"
   xmlns="http://www.w3.org/2000/svg"
   xmlns:sodipodi="http://sodipodi.sourceforge.net/DTD/sodipodi-0.dtd"
   xmlns:inkscape="http://www.inkscape.org/namespaces/inkscape"
   inkscape:export-ydpi="1536"
   inkscape:export-xdpi="1536"
   inkscape:export-filename="W:\jk_assets\pikuma\graphics\siding.png"
   sodipodi:docname="siding.svg"
   inkscape:version="1.0 (4035a4fb49, 2020-05-01)"
   id="svg1726"
   version="1.1"
   viewBox="0 0 64 64"
   height="64"
   width="64">
  <defs
     id="defs1720" />
  <sodipodi:namedview
     inkscape:window-maximized="1"
     inkscape:window-y="-9"
     inkscape:window-x="2391"
     inkscape:window-height="1361"
     inkscape:window-width="2560"
     inkscape:snap-global="true"
     inkscape:lockguides="false"
     showguides="true"
     showgrid="true"
     inkscape:document-rotation="0"
     inkscape:current-layer="layer1"
     inkscape:document-units="px"
     inkscape:cy="34.99364"
     inkscape:cx="58.019424"
     inkscape:zoom="11.2"
     inkscape:pageshadow="2"
     inkscape:pageopacity="1"
     borderopacity="1.0"
     bordercolor="#666666"
     pagecolor="#d7c9aa"
     id="base"
     units="px">
    <inkscape:grid
       empopacity="0.25098039"
       empcolor="#000000"
       opacity="0.1254902"
       color="#000000"
       id="grid2296"
       type="xygrid"
       spacingx="6.4"
       spacingy="6.4" />
  </sodipodi:namedview>
  <metadata
     id="metadata1723">
    <rdf:RDF>
      <cc:Work
         rdf:about="">
        <dc:format>image/svg+xml</dc:format>
        <dc:type
           rdf:resource="http://purl.org/dc/dcmitype/StillImage" />
        <dc:title />
      </cc:Work>
    </rdf:RDF>
  </metadata>
  <g
     id="layer1"
     inkscape:groupmode="layer"
     inkscape:label="Layer 1">
    <path
       id="0"
       style="fill:#a3806c;fill-opacity:1;stroke-width:0.159976"
       d="M -6.4003906 5.8710938 L -6.4003906 6.4003906 L 70.400391 6.4003906 L 70.400391 5.8710938 L -6.4003906 5.8710938 z M -6.4003906 12.271484 L -6.4003906 12.800781 L 70.400391 12.800781 L 70.400391 12.271484 L -6.4003906 12.271484 z M -6.4003906 18.671875 L -6.4003906 19.199219 L 70.400391 19.199219 L 70.400391 18.671875 L -6.4003906 18.671875 z M -6.4003906 25.072266 L -6.4003906 25.599609 L 70.400391 25.599609 L 70.400391 25.072266 L -6.4003906 25.072266 z M -6.4003906 31.470703 L -6.4003906 32 L 70.400391 32 L 70.400391 31.470703 L -6.4003906 31.470703 z M -6.4003906 37.871094 L -6.4003906 38.400391 L 70.400391 38.400391 L 70.400391 37.871094 L -6.4003906 37.871094 z M -6.4003906 44.271484 L -6.4003906 44.800781 L 70.400391 44.800781 L 70.400391 44.271484 L -6.4003906 44.271484 z M -6.4003906 50.671875 L -6.4003906 51.199219 L 70.400391 51.199219 L 70.400391 50.671875 L -6.4003906 50.671875 z M -6.4003906 57.072266 L -6.4003906 57.599609 L 70.400391 57.599609 L 70.400391 57.072266 L -6.4003906 57.072266 z M -6.4003906 63.470703 L -6.4003906 64 L 70.400391 64 L 70.400391 63.470703 L -6.4003906 63.470703 z " />
  </g>
</svg>
